# xmcd
# 
# Track frame offsets:
#     150
#     23836
#     50349
#     67126
#     85206
#     106315
#     128888
#     147808
#     168785
#     188408
#     209157
#     226640
#     241235
# 
# Disc length: 3372
# 
# Revision: 3
# Processed by: cddbd v1.5.2PL0 Copyright (c) Steve Scherf et al.
# Submitted via: BonkEnc v1.0.8
# 
DISCID=a90d2a0d
DTITLE=Paul Carrack - Blue Views
DYEAR=1997
DGENRE=Pop
TTITLE0=No Easy Way Out
TTITLE1=For Once In Our Lives
TTITLE2=Somewhere In Your Heart
TTITLE3=Eyes Of Blue
TTITLE4=Always Have Always Will
TTITLE5=Nothing More Than A Memory
TTITLE6=Oh Oh Oh My My My
TTITLE7=Don't Walk Over Me
TTITLE8=Only A Breath Away
TTITLE9=Love Will Keep Us Alive
TTITLE10=How Long
TTITLE11=Over My Shoulder
TTITLE12=People Get Ready
EXTD=YEAR: 1997
EXTT0=
EXTT1=
EXTT2=
EXTT3=
EXTT4=
EXTT5=
EXTT6=
EXTT7=
EXTT8=
EXTT9=
EXTT10=
EXTT11=
EXTT12=
PLAYORDER=
